<svg id="Layer_1" data-name="Layer 1" xmlns="http://www.w3.org/2000/svg" width="198.05" height="72.92" viewBox="0 0 198.05 72.92"><defs><style>.cls-1{fill:#2b388f;}.cls-2{fill:#be1e2d;}.cls-3{fill:#333;}.cls-4,.cls-5{fill:none;stroke-miterlimit:10;}.cls-4{stroke:#333;}.cls-5{stroke:#aaa;}</style></defs><title>braden_large_logo</title><path class="cls-1" d="M5.12,56.34C6.81,55.37,23,49,34.62,39.81c11.35-9,16.88-16,16.88-16L32.15,56.34h-27Z" transform="translate(-5.12 -3.11)"/><path class="cls-1" d="M35.32,56.34s12-20.16,18.3-32.33S63.74,3.11,63.74,3.11L63.62,56.34H36" transform="translate(-5.12 -3.11)"/><path class="cls-2" d="M5.92,62.21c0-.37,0-2.44-0.06-2.69a14,14,0,0,1,1.7.07c2.48,0.21,2.83,1.17,2.83,1.86a2.21,2.21,0,0,1-1.55,1.92v0a2.16,2.16,0,0,1,1.93,1.92c0,1.46-1.86,2.88-4.81,2.89H5.86c0.06-.68.06-4.39,0.06-4.62V62.21ZM7,63.29c1.35,0,2.25-.86,2.25-1.68,0-1.11-1.4-1.28-2.25-1.3v3Zm0,4c1.34-.13,2.56-0.77,2.56-1.93,0-.86-1-1.46-2.56-1.39v3.32Z" transform="translate(-5.12 -3.11)"/><path class="cls-2" d="M16.05,64.36c0,0.47,0,3.58.06,3.76H14.92c0-.29,0-4.19,0-4.45v-1c0-.37,0-2.91-0.06-3.15a23.46,23.46,0,0,1,2.56.12c1.62,0.2,2.55.89,2.55,1.93a3.07,3.07,0,0,1-1.71,2.5c0.31,0.42,2.52,3.16,2.87,3.53l-0.93.75c-0.14-.17-2.9-3.8-3.27-4.32,0.61-.33,1.84-1.08,1.84-2.29,0-.55-0.41-1.38-2.73-1.4v4Z" transform="translate(-5.12 -3.11)"/><path class="cls-2" d="M23.2,67.72c0.68-1.18,4.22-8.17,4.51-8.63h0c1.08,1.75,4,7.29,4.83,8.57l-1,.69c-0.25-.47-1.55-3-1.68-3.19l-4.27.17c-0.15.23-1.16,2.61-1.36,3Zm6.27-3.35c-0.14-.27-1.65-3.14-1.77-3.33-0.18.27-1.6,3.28-1.71,3.48Z" transform="translate(-5.12 -3.11)"/><path class="cls-2" d="M36,62.71c0-.26,0-2.85-0.06-3.2a27.09,27.09,0,0,1,3.14.12c4,0.5,4.5,2.29,4.5,3.15,0,3.81-4.85,5.4-7.65,5.4,0-.57.07-3.62,0.07-3.95V62.71Zm1.11,4.39c3.36-.29,5.26-2.28,5.26-4s-2.08-2.71-5.26-2.67V67.1Z" transform="translate(-5.12 -3.11)"/><path class="cls-2" d="M51.46,68.25l-4.14-.12c0-.65,0-3.28,0-3.57V62.91c0-.2,0-3.16,0-3.39,0.29,0,3.5-.18,3.9-0.23l0,1-2.8.06v3.12c0.22,0,1.8-.06,2.4-0.14l0,1-2.44,0v3c0.3,0,1.94,0,3,0Z" transform="translate(-5.12 -3.11)"/><path class="cls-2" d="M55.35,68.13c0.06-.92.39-7.83,0.45-9.1h0c0.34,0.39,6.3,6.58,6.69,7,0-.34.07-6.14,0.09-6.54l1.14,0.06c0,0.74-.28,5.77-0.33,8.87h0c-0.33-.33-6.55-6.72-6.78-7h0c0,0.43-.1,6.44-0.09,6.85Z" transform="translate(-5.12 -3.11)"/><path class="cls-2" d="M6.19,73c0-.14,0-1.5,0-1.68a14.36,14.36,0,0,1,1.65.06c2.11,0.27,2.37,1.2,2.37,1.66,0,2-2.55,2.84-4,2.84,0-.3,0-1.9,0-2.08V73Zm0.58,2.31c1.77-.16,2.77-1.2,2.77-2.1s-1.09-1.42-2.77-1.4v3.51Z" transform="translate(-5.12 -3.11)"/><path class="cls-2" d="M13.89,76l-2.18-.06c0-.34,0-1.73,0-1.88V73.15c0-.1,0-1.66,0-1.79,0.16,0,1.84-.1,2.05-0.12l0,0.51-1.48,0v1.64c0.12,0,.94,0,1.26-0.07l0,0.51-1.28,0v1.58c0.16,0,1,0,1.55,0Z" transform="translate(-5.12 -3.11)"/><path class="cls-2" d="M15.49,75.89c0-.49.21-4.12,0.24-4.79h0c0.18,0.21,3.31,3.46,3.52,3.67,0-.18,0-3.23,0-3.44l0.6,0c0,0.39-.15,3-0.17,4.67h0c-0.17-.17-3.45-3.53-3.57-3.69h0c0,0.23-.05,3.39,0,3.6Z" transform="translate(-5.12 -3.11)"/><path class="cls-2" d="M22.69,75.89c0-.17,0-2.06,0-3.09v-1c-0.74,0-1.66,0-1.83.06V71.35c0.26,0.05,1.79.08,1.86,0.08h0.56c0.12,0,1.53,0,1.82-.08V71.9c-0.09,0-1.29-.06-1.83-0.06v1.07c0,1.31.06,2.85,0.08,3h-0.7Z" transform="translate(-5.12 -3.11)"/><path class="cls-2" d="M25.18,75.68c0.36-.62,2.22-4.3,2.38-4.54h0c0.57,0.92,2.1,3.84,2.54,4.51L29.57,76c-0.13-.25-0.82-1.57-0.89-1.68l-2.25.09c-0.08.12-.61,1.37-0.72,1.59Zm3.3-1.76c-0.07-.14-0.87-1.65-0.93-1.75-0.1.14-.84,1.73-0.9,1.83Z" transform="translate(-5.12 -3.11)"/><path class="cls-2" d="M32.1,71.36c0,0.14-.05,1.42-0.05,2.23v1.83c0.16,0,.92,0,1.54,0V76l-2.17-.06c0.05-.34.05-1.73,0.05-1.88V73.15c0-.1,0-1.66,0-1.79H32.1Z" transform="translate(-5.12 -3.11)"/><path class="cls-2" d="M40.43,75.93a4.78,4.78,0,0,1-.88.07c-2.21,0-2.76-1.32-2.76-1.92,0-1.06,1-2.41,3.26-2.82l0.1,0.54c-1.48.17-2.7,1.06-2.7,2.17,0,0.79.62,1.53,2.17,1.53a3.42,3.42,0,0,0,.75-0.09Z" transform="translate(-5.12 -3.11)"/><path class="cls-2" d="M44.07,76l-2.18-.06c0-.34,0-1.73,0-1.88V73.15c0-.1,0-1.66,0-1.79,0.16,0,1.84-.1,2.05-0.12l0,0.51-1.47,0v1.64c0.12,0,.94,0,1.26-0.07l0,0.51-1.28,0v1.58c0.16,0,1,0,1.55,0Z" transform="translate(-5.12 -3.11)"/><path class="cls-2" d="M45.66,75.89c0-.49.21-4.12,0.24-4.79h0c0.18,0.21,3.31,3.46,3.52,3.67,0-.18,0-3.23,0-3.44l0.6,0c0,0.39-.15,3-0.18,4.67h0c-0.18-.17-3.45-3.53-3.57-3.69h0c0,0.23-.05,3.39,0,3.6Z" transform="translate(-5.12 -3.11)"/><path class="cls-2" d="M52.86,75.89c0-.17,0-2.06,0-3.09v-1c-0.74,0-1.66,0-1.83.06V71.35c0.26,0.05,1.79.08,1.86,0.08h0.56c0.12,0,1.53,0,1.82-.08V71.9c-0.09,0-1.29-.06-1.83-0.06v1.07c0,1.31.07,2.85,0.08,3h-0.7Z" transform="translate(-5.12 -3.11)"/><path class="cls-2" d="M58.68,76l-2.18-.06c0-.34,0-1.73,0-1.88V73.15c0-.1,0-1.66,0-1.79,0.16,0,1.84-.1,2.05-0.12l0,0.51-1.47,0v1.64c0.12,0,.94,0,1.26-0.07l0,0.51-1.28,0v1.58c0.15,0,1,0,1.55,0Z" transform="translate(-5.12 -3.11)"/><path class="cls-2" d="M61.07,73.91c0,0.25,0,1.88,0,2H60.48c0-.16,0-2.21,0-2.34V73c0-.19,0-1.53,0-1.66a12.41,12.41,0,0,1,1.35.06c0.85,0.1,1.34.47,1.34,1a1.61,1.61,0,0,1-.9,1.31c0.16,0.22,1.33,1.66,1.51,1.86l-0.49.4c-0.07-.09-1.53-2-1.72-2.27a1.57,1.57,0,0,0,1-1.2c0-.29-0.21-0.72-1.44-0.74v2.12Z" transform="translate(-5.12 -3.11)"/><path class="cls-3" d="M83.17,30.3V20.68h4.18a2.67,2.67,0,0,1,1.2.27,3.07,3.07,0,0,1,.94.71,3.35,3.35,0,0,1,.62,1,3.06,3.06,0,0,1,.22,1.14,3.22,3.22,0,0,1-.14.93,3.27,3.27,0,0,1-.38.83,2.66,2.66,0,0,1-.6.66,2.44,2.44,0,0,1-.77.41l2.29,3.66H89L86.9,27H84.68V30.3H83.17Zm1.52-4.69h2.65a1.22,1.22,0,0,0,.59-0.14,1.39,1.39,0,0,0,.45-0.39,2,2,0,0,0,.3-0.58,2.17,2.17,0,0,0,.11-0.69,1.87,1.87,0,0,0-.13-0.69,2,2,0,0,0-.34-0.57,1.6,1.6,0,0,0-.49-0.39A1.24,1.24,0,0,0,87.26,22H84.68v3.59Z" transform="translate(-5.12 -3.11)"/><path class="cls-3" d="M92.13,32L92.48,32h0.3a1.09,1.09,0,0,0,.31,0,0.54,0.54,0,0,0,.26-0.21,2.69,2.69,0,0,0,.29-0.52q0.16-.35.37-1l-2.9-7.08h1.53L94.84,29l1.95-5.77H98.2L95,31.94A2.11,2.11,0,0,1,94.15,33a2.26,2.26,0,0,1-1.26.35,2.65,2.65,0,0,1-.76-0.11V32Z" transform="translate(-5.12 -3.11)"/><path class="cls-3" d="M101,30.44a2.64,2.64,0,0,1-1-.17,2.3,2.3,0,0,1-.76-0.47,2.16,2.16,0,0,1-.5-0.7,2.12,2.12,0,0,1-.18-0.88,1.9,1.9,0,0,1,.22-0.91,2.12,2.12,0,0,1,.62-0.7,3,3,0,0,1,.95-0.46,4.25,4.25,0,0,1,1.21-.16,5.55,5.55,0,0,1,1,.09,5,5,0,0,1,.88.24V25.82a1.64,1.64,0,0,0-.45-1.23,1.76,1.76,0,0,0-1.29-.44,3.1,3.1,0,0,0-1.12.21,5.64,5.64,0,0,0-1.13.6L99,24a5,5,0,0,1,2.84-.92,3.24,3.24,0,0,1,2.28.74A2.76,2.76,0,0,1,105,26v2.56a0.56,0.56,0,0,0,.09.37,0.45,0.45,0,0,0,.33.12V30.3l-0.4.05h-0.33a1,1,0,0,1-.66-0.23,0.89,0.89,0,0,1-.28-0.54l0-.45a3.16,3.16,0,0,1-1.17,1A3.44,3.44,0,0,1,101,30.44Zm0.41-1.1a2.68,2.68,0,0,0,1-.2,1.77,1.77,0,0,0,.75-0.55,0.69,0.69,0,0,0,.28-0.51V27.14a4.62,4.62,0,0,0-1.64-.31,2.27,2.27,0,0,0-1.31.35,1.06,1.06,0,0,0-.51.91,1.15,1.15,0,0,0,.39.89A1.43,1.43,0,0,0,101.42,29.34Z" transform="translate(-5.12 -3.11)"/><path class="cls-3" d="M113.15,30.3h-1.49v-4a2.54,2.54,0,0,0-.33-1.46,1.08,1.08,0,0,0-.93-0.45,1.89,1.89,0,0,0-.66.12,2.23,2.23,0,0,0-.62.35,2.68,2.68,0,0,0-.51.53,2.41,2.41,0,0,0-.35.67V30.3h-1.49V23.22h1.35v1.42a2.89,2.89,0,0,1,1.18-1.13A3.56,3.56,0,0,1,111,23.1a2.14,2.14,0,0,1,1,.23,1.72,1.72,0,0,1,.65.63,2.75,2.75,0,0,1,.33.92,6.14,6.14,0,0,1,.09,1.1V30.3Z" transform="translate(-5.12 -3.11)"/><path class="cls-3" d="M125.05,22h-3.2V30.3h-1.52V22h-3.21V20.68h7.92V22Z" transform="translate(-5.12 -3.11)"/><path class="cls-3" d="M125.22,30.3V28.57h1.23V30.3h-1.23Z" transform="translate(-5.12 -3.11)"/><path class="cls-3" d="M139.23,27.82a2.24,2.24,0,0,1-.24,1,2.37,2.37,0,0,1-.64.78,2.87,2.87,0,0,1-.94.49,3.82,3.82,0,0,1-1.15.17h-4.59V20.68h5a1.9,1.9,0,0,1,.91.22,2.28,2.28,0,0,1,.69.56,2.57,2.57,0,0,1,.44.79,2.65,2.65,0,0,1,.16.89,2.58,2.58,0,0,1-.36,1.32,2.19,2.19,0,0,1-1,.91,2.44,2.44,0,0,1,1.31.89A2.54,2.54,0,0,1,139.23,27.82Zm-6-5.82v2.83H136a1.24,1.24,0,0,0,.52-0.11,1.44,1.44,0,0,0,.42-0.29,1.27,1.27,0,0,0,.28-0.44,1.52,1.52,0,0,0,.1-0.57,1.49,1.49,0,0,0-.35-1,1.14,1.14,0,0,0-.89-0.4h-2.87Zm4.48,5.54a1.61,1.61,0,0,0-.1-0.57,1.63,1.63,0,0,0-.27-0.47,1.28,1.28,0,0,0-.41-0.32,1.16,1.16,0,0,0-.53-0.12h-3.17V29h3.07a1.34,1.34,0,0,0,.55-0.12,1.42,1.42,0,0,0,.45-0.31A1.47,1.47,0,0,0,137.68,27.54Z" transform="translate(-5.12 -3.11)"/><path class="cls-3" d="M144.6,24.5a3.29,3.29,0,0,0-1.53.4,2.18,2.18,0,0,0-1,1.06V30.3h-1.49V23.22H142V24.8a3.56,3.56,0,0,1,1-1.19,2,2,0,0,1,1.25-.46h0.38V24.5Z" transform="translate(-5.12 -3.11)"/><path class="cls-3" d="M147.47,30.44a2.64,2.64,0,0,1-1-.17,2.3,2.3,0,0,1-.76-0.47,2.16,2.16,0,0,1-.5-0.7,2.12,2.12,0,0,1-.18-0.88,1.9,1.9,0,0,1,.22-0.91,2.12,2.12,0,0,1,.62-0.7,3,3,0,0,1,.95-0.46,4.25,4.25,0,0,1,1.21-.16,5.55,5.55,0,0,1,1,.09,5,5,0,0,1,.88.24V25.82a1.64,1.64,0,0,0-.45-1.23,1.76,1.76,0,0,0-1.29-.44,3.09,3.09,0,0,0-1.12.21A5.64,5.64,0,0,0,146,25L145.49,24a5,5,0,0,1,2.84-.92,3.24,3.24,0,0,1,2.28.74,2.76,2.76,0,0,1,.81,2.14v2.56a0.56,0.56,0,0,0,.09.37,0.45,0.45,0,0,0,.33.12V30.3l-0.4.05h-0.33a1,1,0,0,1-.66-0.23,0.89,0.89,0,0,1-.28-0.54l0-.45a3.16,3.16,0,0,1-1.17,1A3.44,3.44,0,0,1,147.47,30.44Zm0.41-1.1a2.68,2.68,0,0,0,1-.2,1.77,1.77,0,0,0,.75-0.55,0.69,0.69,0,0,0,.28-0.51V27.14a4.62,4.62,0,0,0-1.64-.31,2.27,2.27,0,0,0-1.31.35,1.06,1.06,0,0,0-.51.91,1.15,1.15,0,0,0,.39.89A1.43,1.43,0,0,0,147.87,29.34Z" transform="translate(-5.12 -3.11)"/><path class="cls-3" d="M156.18,30.44a3.12,3.12,0,0,1-1.35-.29,3.28,3.28,0,0,1-1.06-.79,3.68,3.68,0,0,1-.7-1.16,4,4,0,0,1-.25-1.42,4.25,4.25,0,0,1,.24-1.43,3.67,3.67,0,0,1,.66-1.16,3.12,3.12,0,0,1,1-.79A2.85,2.85,0,0,1,156,23.1a2.73,2.73,0,0,1,1.48.41,2.91,2.91,0,0,1,1,1.06V20.41H160v8.13a0.42,0.42,0,0,0,.43.49V30.3l-0.41.05h-0.33a0.91,0.91,0,0,1-.95-0.77l0-.58a2.76,2.76,0,0,1-1.08,1.06A3,3,0,0,1,156.18,30.44Zm0.38-1.27a1.8,1.8,0,0,0,.6-0.11,2.35,2.35,0,0,0,.58-0.3,2.24,2.24,0,0,0,.47-0.45,1.53,1.53,0,0,0,.28-0.56V25.9a2.28,2.28,0,0,0-.34-0.6,2.66,2.66,0,0,0-.5-0.49,2.3,2.3,0,0,0-.59-0.33,1.84,1.84,0,0,0-1.48.09,2.13,2.13,0,0,0-.66.54,2.48,2.48,0,0,0-.43.78,2.78,2.78,0,0,0-.15.9,2.5,2.5,0,0,0,.17.92,2.39,2.39,0,0,0,.46.75,2.18,2.18,0,0,0,.7.51A2.05,2.05,0,0,0,156.55,29.16Z" transform="translate(-5.12 -3.11)"/><path class="cls-3" d="M165.14,30.44a3.77,3.77,0,0,1-1.5-.29,3.48,3.48,0,0,1-1.16-.79,3.56,3.56,0,0,1-.75-1.16,3.78,3.78,0,0,1-.26-1.41,3.83,3.83,0,0,1,.26-1.42,3.64,3.64,0,0,1,.75-1.18,3.45,3.45,0,0,1,1.16-.8,3.79,3.79,0,0,1,1.52-.29,3.64,3.64,0,0,1,1.5.3,3.59,3.59,0,0,1,1.14.79,3.38,3.38,0,0,1,.72,1.15,3.83,3.83,0,0,1,.25,1.37c0,0.11,0,.21,0,0.3s0,0.17,0,.24h-5.67a2.43,2.43,0,0,0,.22.85,2.24,2.24,0,0,0,.47.66,2.08,2.08,0,0,0,1.44.58,2.36,2.36,0,0,0,.59-0.07,2.05,2.05,0,0,0,.53-0.22,1.87,1.87,0,0,0,.43-0.35,1.6,1.6,0,0,0,.3-0.45l1.27,0.37a3,3,0,0,1-1.21,1.31A3.76,3.76,0,0,1,165.14,30.44Zm2.15-4.21a2.38,2.38,0,0,0-.22-0.83,2.13,2.13,0,0,0-.47-0.64,2.09,2.09,0,0,0-.66-0.41,2.17,2.17,0,0,0-.8-0.15,2.12,2.12,0,0,0-1.45.56,2,2,0,0,0-.46.64,2.44,2.44,0,0,0-.22.83h4.28Z" transform="translate(-5.12 -3.11)"/><path class="cls-3" d="M176.33,30.3h-1.49v-4a2.54,2.54,0,0,0-.33-1.46,1.08,1.08,0,0,0-.93-0.45,1.89,1.89,0,0,0-.66.12,2.23,2.23,0,0,0-.62.35,2.68,2.68,0,0,0-.51.53,2.41,2.41,0,0,0-.35.67V30.3H170V23.22h1.35v1.42a2.89,2.89,0,0,1,1.18-1.13,3.56,3.56,0,0,1,1.71-.41,2.14,2.14,0,0,1,1,.23,1.72,1.72,0,0,1,.65.63,2.75,2.75,0,0,1,.33.92,6.14,6.14,0,0,1,.09,1.1V30.3Z" transform="translate(-5.12 -3.11)"/><path class="cls-3" d="M177.68,30.53a0.63,0.63,0,0,0,.24-0.07,0.31,0.31,0,0,0,.15-0.31V28.57h1.23v1.86a1,1,0,0,1-.16.57,1.17,1.17,0,0,1-.39.37,1.82,1.82,0,0,1-.52.2,2.64,2.64,0,0,1-.55.06V30.53Z" transform="translate(-5.12 -3.11)"/><path class="cls-3" d="M183.49,30.3V23.09H186a3.81,3.81,0,0,1,1.53.28,3.15,3.15,0,0,1,1.1.77,3.25,3.25,0,0,1,.67,1.14,4.31,4.31,0,0,1,.22,1.4,4.22,4.22,0,0,1-.25,1.49,3.25,3.25,0,0,1-.71,1.14,3.13,3.13,0,0,1-1.11.73,3.89,3.89,0,0,1-1.45.26h-2.56Zm4.92-3.62a3.34,3.34,0,0,0-.16-1,2.29,2.29,0,0,0-.46-0.82,2.16,2.16,0,0,0-.74-0.53,2.44,2.44,0,0,0-1-.19h-1.42v5.2H186a2.45,2.45,0,0,0,1-.2,2.07,2.07,0,0,0,.74-0.55,2.36,2.36,0,0,0,.45-0.83A3.39,3.39,0,0,0,188.4,26.68Z" transform="translate(-5.12 -3.11)"/><path class="cls-3" d="M190.78,30.3V23.09h2.56a3.81,3.81,0,0,1,1.53.28,3.15,3.15,0,0,1,1.1.77,3.25,3.25,0,0,1,.67,1.14,4.31,4.31,0,0,1,.22,1.4,4.22,4.22,0,0,1-.25,1.49,3.25,3.25,0,0,1-.71,1.14,3.13,3.13,0,0,1-1.11.73,3.89,3.89,0,0,1-1.45.26h-2.56Zm4.92-3.62a3.34,3.34,0,0,0-.16-1,2.29,2.29,0,0,0-.46-0.82,2.16,2.16,0,0,0-.74-0.53,2.44,2.44,0,0,0-1-.19h-1.42v5.2h1.42a2.45,2.45,0,0,0,1-.2,2.07,2.07,0,0,0,.74-0.55,2.36,2.36,0,0,0,.45-0.83A3.39,3.39,0,0,0,195.7,26.68Z" transform="translate(-5.12 -3.11)"/><path class="cls-3" d="M202.32,24.78a1.56,1.56,0,0,0-.29-0.24,3,3,0,0,0-.45-0.24,3.25,3.25,0,0,0-.57-0.18,3.07,3.07,0,0,0-.67-0.07,1.65,1.65,0,0,0-1,.26,0.88,0.88,0,0,0-.34.74,0.77,0.77,0,0,0,.11.43,0.92,0.92,0,0,0,.33.29A2.75,2.75,0,0,0,200,26l0.78,0.21q0.53,0.14,1,.29a2.79,2.79,0,0,1,.75.38,1.6,1.6,0,0,1,.48.56,1.8,1.8,0,0,1,.17.83,2,2,0,0,1-.21,1,1.83,1.83,0,0,1-.57.65,2.5,2.5,0,0,1-.84.37,4.25,4.25,0,0,1-1,.12,5.16,5.16,0,0,1-1.59-.25,4.54,4.54,0,0,1-1.39-.73l0.53-1a2.49,2.49,0,0,0,.38.29,3.37,3.37,0,0,0,.57.3,4.94,4.94,0,0,0,.73.23,3.45,3.45,0,0,0,.82.1,1.82,1.82,0,0,0,1-.24,0.78,0.78,0,0,0,.36-0.7,0.76,0.76,0,0,0-.13-0.46,1.12,1.12,0,0,0-.39-0.32,3.18,3.18,0,0,0-.62-0.24l-0.83-.23a8.51,8.51,0,0,1-.94-0.3,2.35,2.35,0,0,1-.67-0.38,1.5,1.5,0,0,1-.4-0.52,1.75,1.75,0,0,1-.14-0.73,2.14,2.14,0,0,1,.2-0.94,2,2,0,0,1,.55-0.69,2.42,2.42,0,0,1,.83-0.42,3.58,3.58,0,0,1,1-.14,3.82,3.82,0,0,1,1.37.23,4.51,4.51,0,0,1,1.08.58Z" transform="translate(-5.12 -3.11)"/><path class="cls-3" d="M91.25,46.55V39.63l-2.86,5.24H87.55l-2.87-5.24v6.92H83.17V36.94h1.63L88,42.81l3.18-5.88h1.63v9.62H91.25Z" transform="translate(-5.12 -3.11)"/><path class="cls-3" d="M96.64,46.69a2.63,2.63,0,0,1-1-.17A2.3,2.3,0,0,1,94.93,46a2.15,2.15,0,0,1-.5-0.7,2.12,2.12,0,0,1-.18-0.88,1.9,1.9,0,0,1,.22-0.91,2.13,2.13,0,0,1,.62-0.7A3,3,0,0,1,96,42.39a4.25,4.25,0,0,1,1.21-.16,5.55,5.55,0,0,1,1,.09,5,5,0,0,1,.88.24V42.07a1.64,1.64,0,0,0-.45-1.23,1.75,1.75,0,0,0-1.29-.44,3.09,3.09,0,0,0-1.12.21,5.61,5.61,0,0,0-1.13.6l-0.46-.95a5,5,0,0,1,2.84-.92,3.24,3.24,0,0,1,2.28.74,2.76,2.76,0,0,1,.81,2.14v2.56a0.56,0.56,0,0,0,.09.37,0.45,0.45,0,0,0,.33.12v1.27l-0.4.05h-0.33a1,1,0,0,1-.66-0.23,0.89,0.89,0,0,1-.28-0.54l0-.45a3.16,3.16,0,0,1-1.17,1A3.45,3.45,0,0,1,96.64,46.69ZM97,45.59a2.68,2.68,0,0,0,1-.2,1.77,1.77,0,0,0,.75-0.55,0.69,0.69,0,0,0,.28-0.51V43.4a4.62,4.62,0,0,0-1.64-.31,2.28,2.28,0,0,0-1.31.34,1.06,1.06,0,0,0-.51.92,1.15,1.15,0,0,0,.39.89A1.43,1.43,0,0,0,97,45.59Z" transform="translate(-5.12 -3.11)"/><path class="cls-3" d="M106.39,40.75a3.27,3.27,0,0,0-1.53.4,2.18,2.18,0,0,0-1,1.06v4.33h-1.49V39.47h1.38v1.58a3.56,3.56,0,0,1,1-1.19A2,2,0,0,1,106,39.4h0.38v1.34Z" transform="translate(-5.12 -3.11)"/><path class="cls-3" d="M112.4,46.55l-2.26-3.26L109,44.4v2.15h-1.49V36.66H109v6.27l3.26-3.45h1.61l-2.74,3,2.9,4.1h-1.6Z" transform="translate(-5.12 -3.11)"/><path class="cls-3" d="M125.09,38.28h-3.2v8.27h-1.52V38.28h-3.21V36.94h7.92v1.34Z" transform="translate(-5.12 -3.11)"/><path class="cls-3" d="M125.26,46.55V44.82h1.23v1.73h-1.23Z" transform="translate(-5.12 -3.11)"/><path class="cls-3" d="M139.27,44.07a2.24,2.24,0,0,1-.24,1,2.37,2.37,0,0,1-.64.78,2.86,2.86,0,0,1-.94.49,3.85,3.85,0,0,1-1.15.17h-4.59V36.94h5a1.9,1.9,0,0,1,.91.22,2.28,2.28,0,0,1,.69.56,2.57,2.57,0,0,1,.44.79,2.65,2.65,0,0,1,.16.89,2.58,2.58,0,0,1-.36,1.32,2.19,2.19,0,0,1-1,.91,2.44,2.44,0,0,1,1.31.89A2.54,2.54,0,0,1,139.27,44.07Zm-6-5.82v2.83H136a1.22,1.22,0,0,0,.52-0.11,1.41,1.41,0,0,0,.42-0.29,1.27,1.27,0,0,0,.28-0.44,1.52,1.52,0,0,0,.1-0.57,1.49,1.49,0,0,0-.35-1,1.14,1.14,0,0,0-.89-0.4h-2.87Zm4.48,5.54a1.62,1.62,0,0,0-.1-0.57,1.64,1.64,0,0,0-.27-0.47,1.27,1.27,0,0,0-.41-0.33,1.17,1.17,0,0,0-.53-0.12h-3.17v2.94h3.07a1.33,1.33,0,0,0,.55-0.12,1.42,1.42,0,0,0,.75-0.77A1.46,1.46,0,0,0,137.72,43.79Z" transform="translate(-5.12 -3.11)"/><path class="cls-3" d="M144.64,40.75a3.27,3.27,0,0,0-1.53.4,2.18,2.18,0,0,0-1,1.06v4.33h-1.49V39.47H142v1.58a3.56,3.56,0,0,1,1-1.19,2,2,0,0,1,1.25-.46h0.38v1.34Z" transform="translate(-5.12 -3.11)"/><path class="cls-3" d="M147.51,46.69a2.63,2.63,0,0,1-1-.17,2.3,2.3,0,0,1-.76-0.47,2.15,2.15,0,0,1-.5-0.7,2.12,2.12,0,0,1-.18-0.88,1.9,1.9,0,0,1,.22-0.91,2.13,2.13,0,0,1,.62-0.7,3,3,0,0,1,.95-0.46,4.25,4.25,0,0,1,1.21-.16,5.55,5.55,0,0,1,1,.09,5,5,0,0,1,.88.24V42.07a1.64,1.64,0,0,0-.45-1.23,1.75,1.75,0,0,0-1.29-.44,3.09,3.09,0,0,0-1.12.21,5.61,5.61,0,0,0-1.13.6l-0.46-.95a5,5,0,0,1,2.84-.92,3.24,3.24,0,0,1,2.28.74,2.76,2.76,0,0,1,.81,2.14v2.56a0.56,0.56,0,0,0,.09.37,0.45,0.45,0,0,0,.33.12v1.27l-0.4.05h-0.33a1,1,0,0,1-.66-0.23,0.89,0.89,0,0,1-.28-0.54l0-.45a3.16,3.16,0,0,1-1.17,1A3.45,3.45,0,0,1,147.51,46.69Zm0.41-1.1a2.68,2.68,0,0,0,1-.2,1.77,1.77,0,0,0,.75-0.55,0.69,0.69,0,0,0,.28-0.51V43.4a4.62,4.62,0,0,0-1.64-.31,2.28,2.28,0,0,0-1.31.34,1.06,1.06,0,0,0-.51.92,1.15,1.15,0,0,0,.39.89A1.43,1.43,0,0,0,147.91,45.59Z" transform="translate(-5.12 -3.11)"/><path class="cls-3" d="M156.22,46.69a3.13,3.13,0,0,1-1.35-.29,3.3,3.3,0,0,1-1.06-.79,3.68,3.68,0,0,1-.7-1.16,4,4,0,0,1-.25-1.42,4.25,4.25,0,0,1,.24-1.43,3.66,3.66,0,0,1,.66-1.16,3.12,3.12,0,0,1,1-.79,2.85,2.85,0,0,1,1.28-.29,2.73,2.73,0,0,1,1.48.41,2.91,2.91,0,0,1,1,1.06V36.66H160v8.13a0.42,0.42,0,0,0,.43.49v1.27L160,46.6h-0.33a0.91,0.91,0,0,1-.95-0.77l0-.58a2.76,2.76,0,0,1-1.08,1.06A3,3,0,0,1,156.22,46.69Zm0.38-1.27a1.81,1.81,0,0,0,.6-0.11,2.35,2.35,0,0,0,.58-0.3,2.21,2.21,0,0,0,.47-0.45,1.53,1.53,0,0,0,.28-0.55V42.15a2.28,2.28,0,0,0-.34-0.6,2.63,2.63,0,0,0-.5-0.49,2.24,2.24,0,0,0-.59-0.33,1.78,1.78,0,0,0-.62-0.12,1.81,1.81,0,0,0-.86.2,2.13,2.13,0,0,0-.66.54,2.48,2.48,0,0,0-.43.78,2.78,2.78,0,0,0-.15.9,2.5,2.5,0,0,0,.17.92,2.39,2.39,0,0,0,.46.75,2.17,2.17,0,0,0,.7.51A2,2,0,0,0,156.59,45.41Z" transform="translate(-5.12 -3.11)"/><path class="cls-3" d="M165.18,46.69a3.78,3.78,0,0,1-1.5-.29,3.5,3.5,0,0,1-1.16-.79,3.57,3.57,0,0,1-.75-1.16,3.78,3.78,0,0,1-.26-1.41,3.83,3.83,0,0,1,.26-1.42,3.64,3.64,0,0,1,.75-1.18,3.45,3.45,0,0,1,1.16-.8,3.79,3.79,0,0,1,1.52-.29,3.64,3.64,0,0,1,1.5.3,3.59,3.59,0,0,1,1.14.79,3.39,3.39,0,0,1,.72,1.15,3.83,3.83,0,0,1,.25,1.38c0,0.11,0,.21,0,0.3s0,0.17,0,.24H163.1a2.42,2.42,0,0,0,.22.85,2.24,2.24,0,0,0,.47.66,2.07,2.07,0,0,0,1.44.58,2.36,2.36,0,0,0,.59-0.07,2.09,2.09,0,0,0,.53-0.22,1.89,1.89,0,0,0,.43-0.34,1.61,1.61,0,0,0,.3-0.45l1.27,0.37a3,3,0,0,1-1.21,1.31A3.76,3.76,0,0,1,165.18,46.69Zm2.15-4.21a2.39,2.39,0,0,0-.22-0.83,2.13,2.13,0,0,0-.47-0.64,2.09,2.09,0,0,0-.66-0.41,2.17,2.17,0,0,0-.8-0.15,2.12,2.12,0,0,0-1.45.56,2,2,0,0,0-.46.64,2.45,2.45,0,0,0-.22.83h4.28Z" transform="translate(-5.12 -3.11)"/><path class="cls-3" d="M176.37,46.55h-1.49v-4a2.54,2.54,0,0,0-.33-1.46,1.08,1.08,0,0,0-.93-0.45,1.89,1.89,0,0,0-.66.12,2.22,2.22,0,0,0-.62.35,2.67,2.67,0,0,0-.51.53,2.4,2.4,0,0,0-.35.67v4.21H170V39.47h1.35v1.42a2.89,2.89,0,0,1,1.18-1.13,3.56,3.56,0,0,1,1.71-.41,2.14,2.14,0,0,1,1,.23,1.72,1.72,0,0,1,.65.63,2.75,2.75,0,0,1,.33.92,6.14,6.14,0,0,1,.09,1.1v4.32Z" transform="translate(-5.12 -3.11)"/><path class="cls-3" d="M177.72,46.78a0.62,0.62,0,0,0,.24-0.07,0.3,0.3,0,0,0,.15-0.31V44.82h1.23v1.86a1,1,0,0,1-.16.57,1.17,1.17,0,0,1-.39.37,1.84,1.84,0,0,1-.52.2,2.68,2.68,0,0,1-.55.06V46.78Z" transform="translate(-5.12 -3.11)"/><path class="cls-3" d="M183.53,46.55V39.34h2.56a3.81,3.81,0,0,1,1.53.28,3.15,3.15,0,0,1,1.1.77,3.25,3.25,0,0,1,.67,1.14,4.31,4.31,0,0,1,.22,1.4,4.22,4.22,0,0,1-.25,1.49,3.26,3.26,0,0,1-.71,1.14,3.14,3.14,0,0,1-1.11.73,3.88,3.88,0,0,1-1.45.26h-2.56Zm4.92-3.62a3.34,3.34,0,0,0-.16-1,2.28,2.28,0,0,0-.46-0.82,2.15,2.15,0,0,0-.74-0.53,2.45,2.45,0,0,0-1-.19h-1.42v5.2h1.42a2.44,2.44,0,0,0,1-.2,2.07,2.07,0,0,0,.74-0.55,2.35,2.35,0,0,0,.45-0.83A3.39,3.39,0,0,0,188.44,42.93Z" transform="translate(-5.12 -3.11)"/><path class="cls-3" d="M190.82,46.55V39.34h2.56a3.81,3.81,0,0,1,1.53.28,3.15,3.15,0,0,1,1.1.77,3.25,3.25,0,0,1,.67,1.14,4.31,4.31,0,0,1,.22,1.4,4.22,4.22,0,0,1-.25,1.49,3.26,3.26,0,0,1-.71,1.14,3.14,3.14,0,0,1-1.11.73,3.88,3.88,0,0,1-1.45.26h-2.56Zm4.92-3.62a3.34,3.34,0,0,0-.16-1,2.28,2.28,0,0,0-.46-0.82,2.15,2.15,0,0,0-.74-0.53,2.45,2.45,0,0,0-1-.19H192v5.2h1.42a2.44,2.44,0,0,0,1-.2,2.07,2.07,0,0,0,.74-0.55,2.35,2.35,0,0,0,.45-0.83A3.39,3.39,0,0,0,195.74,42.93Z" transform="translate(-5.12 -3.11)"/><path class="cls-3" d="M202.36,41a1.6,1.6,0,0,0-.29-0.24,3,3,0,0,0-.45-0.24,3.29,3.29,0,0,0-.57-0.18,3.07,3.07,0,0,0-.67-0.07,1.65,1.65,0,0,0-1,.26,0.88,0.88,0,0,0-.34.74,0.76,0.76,0,0,0,.11.43,0.93,0.93,0,0,0,.33.29,2.81,2.81,0,0,0,.56.22l0.78,0.21q0.53,0.14,1,.29a2.79,2.79,0,0,1,.75.38,1.61,1.61,0,0,1,.48.56,1.81,1.81,0,0,1,.17.83,2,2,0,0,1-.21,1,1.82,1.82,0,0,1-.57.65,2.49,2.49,0,0,1-.84.37,4.25,4.25,0,0,1-1,.12,5.16,5.16,0,0,1-1.59-.25,4.55,4.55,0,0,1-1.39-.73l0.53-1a2.43,2.43,0,0,0,.38.29,3.3,3.3,0,0,0,.57.3,4.88,4.88,0,0,0,.73.23,3.5,3.5,0,0,0,.82.1,1.82,1.82,0,0,0,1-.24,0.78,0.78,0,0,0,.36-0.7,0.76,0.76,0,0,0-.13-0.46,1.12,1.12,0,0,0-.39-0.32,3.18,3.18,0,0,0-.62-0.24L200,43.41a8.4,8.4,0,0,1-.94-0.3,2.34,2.34,0,0,1-.67-0.38,1.5,1.5,0,0,1-.4-0.52,1.75,1.75,0,0,1-.14-0.73,2.14,2.14,0,0,1,.2-0.94,2,2,0,0,1,.55-0.69,2.42,2.42,0,0,1,.83-0.42,3.58,3.58,0,0,1,1-.14,3.82,3.82,0,0,1,1.37.23,4.51,4.51,0,0,1,1.08.58Z" transform="translate(-5.12 -3.11)"/><path class="cls-3" d="M82.64,61.11a2.82,2.82,0,0,0,.68.32,3.16,3.16,0,0,0,1,.16,1.92,1.92,0,0,0,1-.22,1.42,1.42,0,0,0,.57-0.66,3.5,3.5,0,0,0,.26-1.1q0.06-.66.06-1.52V53.2h1.53v4.88a16.82,16.82,0,0,1-.11,2,4.19,4.19,0,0,1-.46,1.54,2.42,2.42,0,0,1-1,1,4,4,0,0,1-1.81.35,3.59,3.59,0,0,1-2.09-.6Z" transform="translate(-5.12 -3.11)"/><path class="cls-3" d="M91.39,62.94a2.63,2.63,0,0,1-1-.17,2.31,2.31,0,0,1-.76-0.47,2.18,2.18,0,0,1-.5-0.7A2.12,2.12,0,0,1,89,60.72a1.9,1.9,0,0,1,.22-0.91,2.13,2.13,0,0,1,.62-0.7,3,3,0,0,1,.95-0.46A4.25,4.25,0,0,1,92,58.48a5.56,5.56,0,0,1,1,.09,5.05,5.05,0,0,1,.88.24V58.32a1.65,1.65,0,0,0-.45-1.23,1.76,1.76,0,0,0-1.29-.44,3.11,3.11,0,0,0-1.12.21,5.65,5.65,0,0,0-1.13.6l-0.46-.95a5,5,0,0,1,2.84-.92,3.24,3.24,0,0,1,2.27.75,2.75,2.75,0,0,1,.81,2.14V61a0.56,0.56,0,0,0,.1.37,0.45,0.45,0,0,0,.32.12V62.8l-0.4.05H95a1,1,0,0,1-.66-0.23,0.89,0.89,0,0,1-.28-0.54l0-.45a3.16,3.16,0,0,1-1.17,1A3.45,3.45,0,0,1,91.39,62.94Zm0.41-1.1a2.68,2.68,0,0,0,1-.2,1.76,1.76,0,0,0,.75-0.55,0.69,0.69,0,0,0,.29-0.51V59.65a4.63,4.63,0,0,0-1.64-.31,2.28,2.28,0,0,0-1.31.34,1.06,1.06,0,0,0-.51.92,1.15,1.15,0,0,0,.39.89A1.43,1.43,0,0,0,91.79,61.84Z" transform="translate(-5.12 -3.11)"/><path class="cls-3" d="M97.11,64.48l0.35,0.05h0.3a1.08,1.08,0,0,0,.31,0,0.54,0.54,0,0,0,.26-0.21,2.7,2.7,0,0,0,.29-0.52q0.16-.35.37-1l-2.9-7.08h1.53l2.19,5.77,2-5.77h1.41l-3.24,8.72a2.12,2.12,0,0,1-.81,1.08,2.26,2.26,0,0,1-1.26.35,2.66,2.66,0,0,1-.76-0.11V64.48Z" transform="translate(-5.12 -3.11)"/><path class="cls-3" d="M115.11,62.8h-1.49v-4a2.51,2.51,0,0,0-.33-1.45,1.09,1.09,0,0,0-.94-0.46,1.72,1.72,0,0,0-1.17.47,2.61,2.61,0,0,0-.76,1.21v4.2h-1.49v-4a2.59,2.59,0,0,0-.32-1.46,1.08,1.08,0,0,0-.94-0.45,1.74,1.74,0,0,0-1.16.46,2.53,2.53,0,0,0-.77,1.21V62.8h-1.49V55.72h1.35v1.42a3,3,0,0,1,1.1-1.14,3,3,0,0,1,1.56-.4,2,2,0,0,1,1.4.46,2.06,2.06,0,0,1,.64,1.15,3.23,3.23,0,0,1,1.12-1.2A2.88,2.88,0,0,1,113,55.6a2.06,2.06,0,0,1,1,.24,1.84,1.84,0,0,1,.66.63,2.69,2.69,0,0,1,.35.91,5.79,5.79,0,0,1,.1,1.1V62.8Z" transform="translate(-5.12 -3.11)"/><path class="cls-3" d="M116.78,54.55V52.92h1.49v1.64h-1.49Zm0,8.25V55.72h1.49V62.8h-1.49Z" transform="translate(-5.12 -3.11)"/><path class="cls-3" d="M123.25,62.94a3.78,3.78,0,0,1-1.5-.29,3.5,3.5,0,0,1-1.16-.79,3.57,3.57,0,0,1-.75-1.16,3.78,3.78,0,0,1-.26-1.41,3.83,3.83,0,0,1,.26-1.42,3.63,3.63,0,0,1,.75-1.18,3.44,3.44,0,0,1,1.16-.8,3.81,3.81,0,0,1,1.52-.29,3.65,3.65,0,0,1,1.5.3,3.58,3.58,0,0,1,1.14.79,3.38,3.38,0,0,1,.72,1.15,3.83,3.83,0,0,1,.25,1.38c0,0.11,0,.21,0,0.3s0,0.17,0,.24h-5.67a2.42,2.42,0,0,0,.22.85,2.24,2.24,0,0,0,.47.66,2.07,2.07,0,0,0,1.44.58,2.36,2.36,0,0,0,.59-0.07,2.09,2.09,0,0,0,.53-0.22,1.89,1.89,0,0,0,.43-0.34,1.61,1.61,0,0,0,.3-0.45l1.27,0.37a3,3,0,0,1-1.21,1.31A3.76,3.76,0,0,1,123.25,62.94Zm2.15-4.21a2.39,2.39,0,0,0-.22-0.83,2.13,2.13,0,0,0-.47-0.64,2.09,2.09,0,0,0-.66-0.41,2.16,2.16,0,0,0-.8-0.15,2.12,2.12,0,0,0-1.45.56,2,2,0,0,0-.46.64,2.45,2.45,0,0,0-.22.83h4.28Z" transform="translate(-5.12 -3.11)"/><path class="cls-3" d="M139.17,60.32a2.24,2.24,0,0,1-.24,1,2.37,2.37,0,0,1-.64.78,2.86,2.86,0,0,1-.94.49,3.85,3.85,0,0,1-1.15.17h-4.59V53.19h5a1.9,1.9,0,0,1,.91.22,2.27,2.27,0,0,1,.69.56,2.57,2.57,0,0,1,.44.79,2.65,2.65,0,0,1,.16.89A2.58,2.58,0,0,1,138.4,57a2.19,2.19,0,0,1-1,.91,2.44,2.44,0,0,1,1.31.89A2.54,2.54,0,0,1,139.17,60.32Zm-6-5.82v2.83h2.79a1.22,1.22,0,0,0,.52-0.11,1.41,1.41,0,0,0,.42-0.29,1.27,1.27,0,0,0,.28-0.44,1.53,1.53,0,0,0,.1-0.57,1.49,1.49,0,0,0-.35-1,1.14,1.14,0,0,0-.89-0.4h-2.87ZM137.61,60a1.62,1.62,0,0,0-.1-0.57,1.64,1.64,0,0,0-.27-0.47,1.27,1.27,0,0,0-.41-0.33,1.17,1.17,0,0,0-.53-0.12h-3.17v2.94h3.07a1.33,1.33,0,0,0,.55-0.12,1.42,1.42,0,0,0,.75-0.77A1.46,1.46,0,0,0,137.61,60Z" transform="translate(-5.12 -3.11)"/><path class="cls-3" d="M144.53,57a3.27,3.27,0,0,0-1.53.4,2.18,2.18,0,0,0-1,1.06V62.8h-1.49V55.72h1.38V57.3a3.57,3.57,0,0,1,1-1.19,2,2,0,0,1,1.25-.46h0.38V57Z" transform="translate(-5.12 -3.11)"/><path class="cls-3" d="M147.4,62.94a2.63,2.63,0,0,1-1-.17,2.3,2.3,0,0,1-.76-0.47,2.15,2.15,0,0,1-.5-0.7,2.12,2.12,0,0,1-.18-0.88,1.9,1.9,0,0,1,.22-0.91,2.13,2.13,0,0,1,.62-0.7,3,3,0,0,1,.95-0.46,4.25,4.25,0,0,1,1.21-.16,5.55,5.55,0,0,1,1,.09,5,5,0,0,1,.88.24V58.32a1.64,1.64,0,0,0-.45-1.23,1.75,1.75,0,0,0-1.29-.44,3.1,3.1,0,0,0-1.12.21,5.61,5.61,0,0,0-1.13.6l-0.46-.95a5,5,0,0,1,2.84-.92,3.24,3.24,0,0,1,2.28.75,2.76,2.76,0,0,1,.81,2.14V61a0.56,0.56,0,0,0,.09.37,0.45,0.45,0,0,0,.33.12V62.8l-0.4.05H151a1,1,0,0,1-.66-0.23,0.89,0.89,0,0,1-.28-0.54l0-.45a3.16,3.16,0,0,1-1.17,1A3.45,3.45,0,0,1,147.4,62.94Zm0.41-1.1a2.68,2.68,0,0,0,1-.2,1.77,1.77,0,0,0,.75-0.55,0.69,0.69,0,0,0,.28-0.51V59.65a4.62,4.62,0,0,0-1.64-.31,2.28,2.28,0,0,0-1.31.34,1.06,1.06,0,0,0-.51.92,1.15,1.15,0,0,0,.39.89A1.43,1.43,0,0,0,147.81,61.84Z" transform="translate(-5.12 -3.11)"/><path class="cls-3" d="M156.11,62.94a3.13,3.13,0,0,1-1.35-.29,3.3,3.3,0,0,1-1.06-.79,3.68,3.68,0,0,1-.7-1.16,4,4,0,0,1-.25-1.42,4.25,4.25,0,0,1,.24-1.43,3.66,3.66,0,0,1,.66-1.16,3.12,3.12,0,0,1,1-.79,2.86,2.86,0,0,1,1.28-.29,2.73,2.73,0,0,1,1.48.41,2.91,2.91,0,0,1,1,1.06V52.92h1.49V61a0.42,0.42,0,0,0,.43.49V62.8l-0.41.05h-0.33a0.91,0.91,0,0,1-.95-0.77l0-.58a2.76,2.76,0,0,1-1.08,1.06A3,3,0,0,1,156.11,62.94Zm0.38-1.27a1.81,1.81,0,0,0,.6-0.11,2.35,2.35,0,0,0,.58-0.3,2.21,2.21,0,0,0,.47-0.45,1.53,1.53,0,0,0,.28-0.55V58.4a2.28,2.28,0,0,0-.34-0.6,2.63,2.63,0,0,0-.5-0.49A2.24,2.24,0,0,0,157,57a1.78,1.78,0,0,0-.62-0.12,1.81,1.81,0,0,0-.86.2,2.13,2.13,0,0,0-.66.54,2.48,2.48,0,0,0-.43.78,2.78,2.78,0,0,0-.15.9,2.5,2.5,0,0,0,.17.92,2.39,2.39,0,0,0,.46.75,2.17,2.17,0,0,0,.7.51A2,2,0,0,0,156.49,61.67Z" transform="translate(-5.12 -3.11)"/><path class="cls-3" d="M165.07,62.94a3.78,3.78,0,0,1-1.5-.29,3.5,3.5,0,0,1-1.16-.79,3.57,3.57,0,0,1-.75-1.16,3.78,3.78,0,0,1-.26-1.41,3.83,3.83,0,0,1,.26-1.42,3.63,3.63,0,0,1,.75-1.18,3.44,3.44,0,0,1,1.16-.8,3.81,3.81,0,0,1,1.52-.29,3.65,3.65,0,0,1,1.5.3,3.58,3.58,0,0,1,1.14.79,3.38,3.38,0,0,1,.72,1.15,3.83,3.83,0,0,1,.25,1.38c0,0.11,0,.21,0,0.3s0,0.17,0,.24H163a2.42,2.42,0,0,0,.22.85,2.24,2.24,0,0,0,.47.66,2.07,2.07,0,0,0,1.44.58,2.36,2.36,0,0,0,.59-0.07,2.09,2.09,0,0,0,.53-0.22,1.89,1.89,0,0,0,.43-0.34,1.61,1.61,0,0,0,.3-0.45l1.27,0.37A3,3,0,0,1,167,62.43,3.76,3.76,0,0,1,165.07,62.94Zm2.15-4.21A2.39,2.39,0,0,0,167,57.9a2.13,2.13,0,0,0-.47-0.64,2.09,2.09,0,0,0-.66-0.41,2.16,2.16,0,0,0-.8-0.15,2.12,2.12,0,0,0-1.45.56,2,2,0,0,0-.46.64,2.45,2.45,0,0,0-.22.83h4.28Z" transform="translate(-5.12 -3.11)"/><path class="cls-3" d="M176.26,62.8h-1.49v-4a2.54,2.54,0,0,0-.33-1.46,1.08,1.08,0,0,0-.93-0.45,1.89,1.89,0,0,0-.66.12,2.22,2.22,0,0,0-.62.35,2.67,2.67,0,0,0-.51.53,2.4,2.4,0,0,0-.35.67V62.8h-1.49V55.72h1.35v1.42A2.88,2.88,0,0,1,172.43,56a3.56,3.56,0,0,1,1.71-.41,2.14,2.14,0,0,1,1,.23,1.71,1.71,0,0,1,.65.63,2.76,2.76,0,0,1,.33.92,6.14,6.14,0,0,1,.09,1.1V62.8Z" transform="translate(-5.12 -3.11)"/><path class="cls-3" d="M177.61,63a0.62,0.62,0,0,0,.24-0.07,0.3,0.3,0,0,0,.15-0.31V61.07h1.23v1.86a1,1,0,0,1-.16.57,1.17,1.17,0,0,1-.39.37,1.84,1.84,0,0,1-.52.2,2.68,2.68,0,0,1-.55.06V63Z" transform="translate(-5.12 -3.11)"/><path class="cls-3" d="M183.42,62.8V55.59H186a3.81,3.81,0,0,1,1.53.29,3.14,3.14,0,0,1,1.1.77,3.25,3.25,0,0,1,.67,1.14,4.31,4.31,0,0,1,.22,1.4,4.22,4.22,0,0,1-.25,1.49,3.26,3.26,0,0,1-.71,1.14,3.14,3.14,0,0,1-1.11.73,3.88,3.88,0,0,1-1.45.26h-2.56Zm4.92-3.62a3.34,3.34,0,0,0-.16-1,2.28,2.28,0,0,0-.46-0.82,2.13,2.13,0,0,0-.74-0.53,2.44,2.44,0,0,0-1-.19h-1.42v5.2H186a2.44,2.44,0,0,0,1-.2,2.07,2.07,0,0,0,.74-0.55,2.35,2.35,0,0,0,.45-0.83A3.39,3.39,0,0,0,188.34,59.19Z" transform="translate(-5.12 -3.11)"/><path class="cls-3" d="M190.71,62.8V55.59h2.56a3.81,3.81,0,0,1,1.53.29,3.14,3.14,0,0,1,1.1.77,3.25,3.25,0,0,1,.67,1.14,4.31,4.31,0,0,1,.22,1.4,4.22,4.22,0,0,1-.25,1.49,3.26,3.26,0,0,1-.71,1.14,3.14,3.14,0,0,1-1.11.73,3.88,3.88,0,0,1-1.45.26h-2.56Zm4.92-3.62a3.34,3.34,0,0,0-.16-1,2.28,2.28,0,0,0-.46-0.82,2.13,2.13,0,0,0-.74-0.53,2.44,2.44,0,0,0-1-.19h-1.42v5.2h1.42a2.44,2.44,0,0,0,1-.2,2.07,2.07,0,0,0,.74-0.55,2.35,2.35,0,0,0,.45-0.83A3.39,3.39,0,0,0,195.63,59.19Z" transform="translate(-5.12 -3.11)"/><path class="cls-3" d="M202.25,57.29A1.6,1.6,0,0,0,202,57a3,3,0,0,0-.45-0.24,3.29,3.29,0,0,0-.57-0.18,3.07,3.07,0,0,0-.67-0.07,1.66,1.66,0,0,0-1,.26,0.88,0.88,0,0,0-.34.74A0.76,0.76,0,0,0,199,58a0.93,0.93,0,0,0,.33.29,2.81,2.81,0,0,0,.56.22l0.78,0.21q0.53,0.14,1,.29a2.79,2.79,0,0,1,.75.38,1.61,1.61,0,0,1,.48.56,1.81,1.81,0,0,1,.17.83,2,2,0,0,1-.21,1,1.82,1.82,0,0,1-.57.65,2.49,2.49,0,0,1-.84.37,4.25,4.25,0,0,1-1,.12,5.16,5.16,0,0,1-1.59-.25,4.55,4.55,0,0,1-1.39-.73l0.53-1a2.43,2.43,0,0,0,.38.29,3.3,3.3,0,0,0,.57.3,4.88,4.88,0,0,0,.73.23,3.5,3.5,0,0,0,.82.1,1.82,1.82,0,0,0,1-.24,0.78,0.78,0,0,0,.36-0.7,0.76,0.76,0,0,0-.13-0.46,1.12,1.12,0,0,0-.39-0.32,3.18,3.18,0,0,0-.62-0.24l-0.83-.23a8.4,8.4,0,0,1-.94-0.3,2.34,2.34,0,0,1-.67-0.38,1.5,1.5,0,0,1-.4-0.52,1.75,1.75,0,0,1-.14-0.73,2.14,2.14,0,0,1,.2-0.94,1.94,1.94,0,0,1,.55-0.69,2.41,2.41,0,0,1,.83-0.42,3.58,3.58,0,0,1,1-.14,3.81,3.81,0,0,1,1.37.23,4.51,4.51,0,0,1,1.08.58Z" transform="translate(-5.12 -3.11)"/><line class="cls-4" x1="68.79" y1="0.39" x2="68.65" y2="72.6"/><line class="cls-5" x1="69.79" y1="0.39" x2="69.65" y2="72.6"/></svg>