<svg id="Layer_1" data-name="Layer 1" xmlns="http://www.w3.org/2000/svg" width="84.29" height="19.82" viewBox="0 0 84.29 19.82"><defs><style>.cls-1{fill:#2a3b8f;}.cls-2{fill:#be202e;}</style></defs><title>braden-logo_scroll</title><path class="cls-1" d="M5.71,24.39c0.63-.36,6.64-2.73,11-6.15A40.65,40.65,0,0,0,23,12.29l-7.2,12.1H5.71Z" transform="translate(-5.71 -4.57)"/><path class="cls-1" d="M16.95,24.39s4.46-7.51,6.81-12,3.77-7.78,3.77-7.78l0,19.82H17.18" transform="translate(-5.71 -4.57)"/><path class="cls-2" d="M32.16,10.35c0-.37,0-2.44-0.06-2.69a14,14,0,0,1,1.7.07c2.48,0.21,2.83,1.17,2.83,1.86a2.21,2.21,0,0,1-1.55,1.92v0A2.16,2.16,0,0,1,37,13.45c0,1.46-1.86,2.88-4.81,2.89H32.1c0.06-.68.06-4.39,0.06-4.62V10.35Zm1.06,1.08c1.35,0,2.25-.86,2.25-1.68,0-1.11-1.4-1.28-2.25-1.3v3Zm0,4c1.34-.13,2.56-0.77,2.56-1.93,0-.86-1-1.46-2.56-1.39v3.32Z" transform="translate(-5.71 -4.57)"/><path class="cls-2" d="M42.3,12.5c0,0.47,0,3.58.06,3.76H41.17c0-.29,0-4.19,0-4.45v-1c0-.37,0-2.91-0.06-3.15a23.46,23.46,0,0,1,2.56.12c1.62,0.2,2.55.89,2.55,1.93a3.07,3.07,0,0,1-1.71,2.5c0.31,0.42,2.52,3.16,2.87,3.53l-0.93.75c-0.14-.17-2.9-3.8-3.27-4.32C43.8,11.84,45,11.09,45,9.88c0-.55-0.41-1.38-2.73-1.4v4Z" transform="translate(-5.71 -4.57)"/><path class="cls-2" d="M49.44,15.86c0.68-1.18,4.22-8.17,4.51-8.63h0c1.08,1.75,4,7.29,4.83,8.57l-1,.69c-0.25-.47-1.55-3-1.68-3.19l-4.27.17c-0.15.23-1.16,2.61-1.36,3Zm6.27-3.35c-0.14-.27-1.65-3.14-1.77-3.33-0.18.27-1.6,3.28-1.71,3.48Z" transform="translate(-5.71 -4.57)"/><path class="cls-2" d="M62.22,10.85c0-.26,0-2.85-0.06-3.2a27.09,27.09,0,0,1,3.14.12c4,0.5,4.5,2.29,4.5,3.15,0,3.81-4.85,5.4-7.65,5.4,0-.57.07-3.62,0.07-3.95V10.85Zm1.11,4.39c3.36-.29,5.26-2.28,5.26-4s-2.08-2.71-5.26-2.67v6.67Z" transform="translate(-5.71 -4.57)"/><path class="cls-2" d="M77.7,16.39l-4.14-.12c0-.65,0-3.28,0-3.57V11c0-.2,0-3.16,0-3.39,0.29,0,3.5-.18,3.9-0.23l0,1-2.8.06v3.12c0.22,0,1.8-.06,2.4-0.14l0,1-2.44,0v3c0.3,0,1.94,0,3,0Z" transform="translate(-5.71 -4.57)"/><path class="cls-2" d="M81.59,16.26c0.06-.92.39-7.83,0.45-9.1h0c0.34,0.39,6.3,6.58,6.69,7,0-.34.07-6.14,0.09-6.54L90,7.66c0,0.74-.28,5.77-0.33,8.87h0c-0.33-.33-6.55-6.72-6.78-7h0c0,0.43-.1,6.44-0.09,6.85Z" transform="translate(-5.71 -4.57)"/><path class="cls-2" d="M32.44,21.18c0-.14,0-1.5,0-1.68a14.36,14.36,0,0,1,1.65.06c2.11,0.27,2.37,1.2,2.37,1.66,0,2-2.55,2.84-4,2.84,0-.3,0-1.9,0-2.08v-0.8ZM33,23.49c1.77-.16,2.77-1.2,2.77-2.1S34.69,20,33,20v3.51Z" transform="translate(-5.71 -4.57)"/><path class="cls-2" d="M40.14,24.1L38,24c0-.34,0-1.73,0-1.88V21.29c0-.1,0-1.66,0-1.79,0.16,0,1.84-.1,2.05-0.12l0,0.51-1.48,0v1.64c0.12,0,.94,0,1.26-0.07l0,0.51-1.28,0v1.58c0.16,0,1,0,1.55,0Z" transform="translate(-5.71 -4.57)"/><path class="cls-2" d="M41.74,24c0-.49.21-4.12,0.24-4.79h0c0.18,0.21,3.31,3.46,3.52,3.67,0-.18,0-3.23,0-3.44l0.6,0c0,0.39-.15,3-0.17,4.67h0c-0.17-.17-3.45-3.53-3.57-3.69h0c0,0.23-.05,3.39,0,3.6Z" transform="translate(-5.71 -4.57)"/><path class="cls-2" d="M48.93,24c0-.17,0-2.06,0-3.09V20c-0.74,0-1.66,0-1.83.06V19.49c0.26,0.05,1.79.08,1.86,0.08h0.56c0.12,0,1.53,0,1.82-.08V20C51.29,20,50.09,20,49.55,20V21c0,1.31.06,2.85,0.08,3h-0.7Z" transform="translate(-5.71 -4.57)"/><path class="cls-2" d="M51.43,23.82c0.36-.62,2.22-4.3,2.38-4.54h0c0.57,0.92,2.1,3.84,2.54,4.51l-0.55.36c-0.13-.25-0.82-1.57-0.89-1.68l-2.25.09c-0.08.12-.61,1.37-0.72,1.59Zm3.3-1.76c-0.07-.14-0.87-1.65-0.93-1.75-0.1.14-.84,1.73-0.9,1.83Z" transform="translate(-5.71 -4.57)"/><path class="cls-2" d="M58.34,19.5c0,0.14-.05,1.42-0.05,2.23v1.83c0.16,0,.92,0,1.54,0V24.1L57.65,24c0.05-.34.05-1.73,0.05-1.88V21.29c0-.1,0-1.66,0-1.79h0.66Z" transform="translate(-5.71 -4.57)"/><path class="cls-2" d="M66.67,24.07a4.78,4.78,0,0,1-.88.07c-2.21,0-2.76-1.32-2.76-1.92,0-1.06,1-2.41,3.26-2.82l0.1,0.54c-1.48.17-2.7,1.06-2.7,2.17,0,0.79.62,1.53,2.17,1.53a3.42,3.42,0,0,0,.75-0.09Z" transform="translate(-5.71 -4.57)"/><path class="cls-2" d="M70.31,24.1L68.13,24c0-.34,0-1.73,0-1.88V21.29c0-.1,0-1.66,0-1.79,0.16,0,1.84-.1,2.05-0.12l0,0.51-1.47,0v1.64c0.12,0,.94,0,1.26-0.07L70,22l-1.28,0v1.58c0.16,0,1,0,1.55,0Z" transform="translate(-5.71 -4.57)"/><path class="cls-2" d="M71.91,24c0-.49.21-4.12,0.24-4.79h0c0.18,0.21,3.31,3.46,3.52,3.67,0-.18,0-3.23,0-3.44l0.6,0c0,0.39-.15,3-0.18,4.67h0C76,24,72.69,20.63,72.57,20.47h0c0,0.23-.05,3.39,0,3.6Z" transform="translate(-5.71 -4.57)"/><path class="cls-2" d="M79.1,24c0-.17,0-2.06,0-3.09V20c-0.74,0-1.66,0-1.83.06V19.49c0.26,0.05,1.79.08,1.86,0.08h0.56c0.12,0,1.53,0,1.82-.08V20C81.46,20,80.26,20,79.72,20V21c0,1.31.07,2.85,0.08,3H79.1Z" transform="translate(-5.71 -4.57)"/><path class="cls-2" d="M84.92,24.1L82.74,24c0-.34,0-1.73,0-1.88V21.29c0-.1,0-1.66,0-1.79,0.16,0,1.84-.1,2.05-0.12l0,0.51-1.47,0v1.64c0.12,0,.94,0,1.26-0.07l0,0.51-1.28,0v1.58c0.15,0,1,0,1.55,0Z" transform="translate(-5.71 -4.57)"/><path class="cls-2" d="M87.31,22.05c0,0.25,0,1.88,0,2H86.72c0-.16,0-2.21,0-2.34V21.16c0-.19,0-1.53,0-1.66a12.41,12.41,0,0,1,1.35.06c0.85,0.1,1.34.47,1.34,1a1.61,1.61,0,0,1-.9,1.31c0.16,0.22,1.33,1.66,1.51,1.86l-0.49.4c-0.07-.09-1.53-2-1.72-2.27a1.57,1.57,0,0,0,1-1.2c0-.29-0.21-0.72-1.44-0.74v2.12Z" transform="translate(-5.71 -4.57)"/></svg>